<svg xmlns="http://www.w3.org/2000/svg" viewBox="0 0 96 96" role="img" aria-labelledby="title desc">
  <title id="title">CV Craft emblem</title>
  <desc id="desc">A premium monogram mark for CV Craft.</desc>
  <defs>
    <linearGradient id="ring" x1="18" y1="18" x2="78" y2="78" gradientUnits="userSpaceOnUse">
      <stop offset="0" stop-color="#F8FAFC"/>
      <stop offset=".48" stop-color="#D1FAE5"/>
      <stop offset="1" stop-color="#93C5FD"/>
    </linearGradient>
    <linearGradient id="core" x1="26" y1="22" x2="70" y2="74" gradientUnits="userSpaceOnUse">
      <stop offset="0" stop-color="#0F172A"/>
      <stop offset="1" stop-color="#111827"/>
    </linearGradient>
  </defs>
  <rect x="8" y="8" width="80" height="80" rx="26" fill="url(#core)"/>
  <rect x="8.75" y="8.75" width="78.5" height="78.5" rx="25.25" fill="none" stroke="url(#ring)" stroke-opacity=".28" stroke-width="1.5"/>
  <path d="M64.2 31.8c-4.6-4.2-10.2-6.3-16.9-6.3-13.1 0-22.8 9.7-22.8 22.7 0 13.3 9.7 22.3 22.8 22.3 6.4 0 12.1-2.1 16.9-6.4" fill="none" stroke="#F8FAFC" stroke-width="5.5" stroke-linecap="round"/>
  <path d="M39.8 46.6 47.1 58.7 63.3 35.4" fill="none" stroke="#6EE7B7" stroke-width="5.5" stroke-linecap="round" stroke-linejoin="round"/>
  <path d="M26 76c6.9-4.3 13.8-6.5 20.7-6.5 6.8 0 13.6 2.2 20.3 6.5" fill="none" stroke="#FFFFFF" stroke-opacity=".1" stroke-width="2.2" stroke-linecap="round"/>
</svg>
