<svg xmlns="http://www.w3.org/2000/svg" viewBox="0 0 64 64">
  <defs>
    <linearGradient id="g" x1="10" y1="8" x2="54" y2="56" gradientUnits="userSpaceOnUse">
      <stop offset="0" stop-color="#00E5A0"/>
      <stop offset=".55" stop-color="#34D399"/>
      <stop offset="1" stop-color="#60A5FA"/>
    </linearGradient>
  </defs>
  <rect width="64" height="64" rx="18" fill="url(#g)"/>
  <path d="M39 14H24c-3.314 0-6 2.686-6 6v24c0 3.314 2.686 6 6 6h18c3.314 0 6-2.686 6-6V23l-9-9Z" fill="#0F172A"/>
  <path d="M39 14v6c0 1.657 1.343 3 3 3h6" fill="none" stroke="rgba(255,255,255,.25)" stroke-width="2" stroke-linecap="round" stroke-linejoin="round"/>
  <path d="M36 29.5c-1.7-2.1-4-3.1-6.9-3.1-5.1 0-9.1 3.9-9.1 9.1s4 9.1 9.1 9.1c2.9 0 5.2-1 6.9-3.1" fill="none" stroke="#ECFEFF" stroke-width="3.5" stroke-linecap="round"/>
  <path d="M29.5 31.5 33 40.5 40.5 26" fill="none" stroke="#A7F3D0" stroke-width="3.5" stroke-linecap="round" stroke-linejoin="round"/>
</svg>
